<svg xmlns="http://www.w3.org/2000/svg" width="32" height="32" viewBox="0 0 750 750">
  <rect width="750" height="750" fill="#ffffff"/>
  <g transform="matrix(1,0,0,1,43,202)">
    <g>
      <!-- Blue hexagon -->
      <path fill="#0d3366" d="M 288.917969 272.195312 L 230.617188 305.855469 L 172.3125 339.515625 C 162.152344 345.382812 145.652344 345.382812 135.492188 339.515625 L 77.1875 305.855469 L 18.886719 272.195312 C 8.726562 266.328125 0.476562 252.039062 0.476562 240.308594 L 0.476562 105.660156 C 0.476562 93.929688 8.726562 79.640625 18.886719 73.773438 L 77.1875 40.113281 L 135.492188 6.453125 C 145.652344 0.585938 162.152344 0.585938 172.3125 6.453125 L 230.617188 40.113281 L 288.917969 73.773438 C 299.078125 79.640625 307.328125 93.929688 307.328125 105.660156 L 307.328125 240.308594 C 307.328125 252.039062 299.078125 266.328125 288.917969 272.195312 Z"/>
      
      <!-- Light blue hexagon -->
      <path fill="#4893ff" d="M 467.011719 272.195312 L 350.402344 339.515625 C 340.242188 345.382812 323.746094 345.382812 313.582031 339.515625 L 255.28125 305.855469 L 196.976562 272.195312 C 186.816406 266.328125 178.566406 252.039062 178.566406 240.308594 L 178.566406 105.660156 C 178.566406 93.929688 186.816406 79.640625 196.976562 73.773438 L 255.28125 40.113281 L 313.582031 6.453125 C 323.746094 0.585938 340.242188 0.585938 350.402344 6.453125 L 467.011719 73.773438 C 477.171875 79.640625 485.421875 93.929688 485.421875 105.660156 L 485.421875 240.308594 C 485.421875 252.039062 477.171875 266.328125 467.011719 272.195312 Z"/>
      
      <!-- Green hexagon -->
      <path fill="#a3e635" d="M 645.101562 272.195312 L 586.800781 305.855469 L 528.496094 339.515625 C 518.335938 345.382812 501.835938 345.382812 491.675781 339.515625 L 433.371094 305.855469 L 375.070312 272.195312 C 364.910156 266.328125 356.660156 252.039062 356.660156 240.308594 L 356.660156 105.660156 C 356.660156 93.929688 364.910156 79.640625 375.070312 73.773438 L 433.371094 40.113281 L 491.675781 6.453125 C 501.835938 0.585938 518.335938 0.585938 528.496094 6.453125 L 586.800781 40.113281 L 645.101562 73.773438 C 655.261719 79.640625 663.511719 93.929688 663.511719 105.660156 L 663.511719 240.308594 C 663.511719 252.039062 655.261719 266.328125 645.101562 272.195312 Z"/>
    </g>
  </g>
</svg>